<?xml version="1.0" encoding="UTF-8"?><svg xmlns="http://www.w3.org/2000/svg" xmlns:xlink="http://www.w3.org/1999/xlink" fill-opacity="1" color-rendering="auto" color-interpolation="auto" text-rendering="auto" stroke="black" stroke-linecap="square" width="89" stroke-miterlimit="10" shape-rendering="auto" stroke-opacity="1" fill="black" stroke-dasharray="none" font-weight="normal" stroke-width="1" height="179" font-family="'Dialog'" font-style="normal" stroke-linejoin="miter" font-size="12px" stroke-dashoffset="0" image-rendering="auto">
  <!--Generated by ySVG 2.5-->
  <defs id="genericDefs"/>
  <g>
    <defs id="defs1">
      <clipPath clipPathUnits="userSpaceOnUse" id="clipPath1">
        <path d="M0 0 L89 0 L89 179 L0 179 L0 0 Z"/>
      </clipPath>
      <clipPath clipPathUnits="userSpaceOnUse" id="clipPath2">
        <path d="M515 185 L693 185 L693 543 L515 543 L515 185 Z"/>
      </clipPath>
    </defs>
    <g text-rendering="geometricPrecision" shape-rendering="geometricPrecision" transform="matrix(0.5,0,0,0.5,-257.5,-92.5)">
      <rect x="657.5" width="5" height="50" y="215" clip-path="url(#clipPath2)" stroke="none"/>
    </g>
    <g text-rendering="geometricPrecision" stroke-miterlimit="1.45" shape-rendering="geometricPrecision" transform="matrix(0.5,0,0,0.5,-257.5,-92.5)" stroke-linecap="butt">
      <rect fill="none" x="657.5" width="5" height="50" y="215" clip-path="url(#clipPath2)"/>
      <rect stroke-linecap="square" x="605" y="267.5" clip-path="url(#clipPath2)" width="50" height="5" stroke="none" stroke-miterlimit="10"/>
      <rect fill="none" x="605" width="50" height="5" y="267.5" clip-path="url(#clipPath2)"/>
      <rect stroke-linecap="square" x="597.5" y="275" clip-path="url(#clipPath2)" width="5" height="50" stroke="none" stroke-miterlimit="10"/>
      <rect fill="none" x="597.5" width="5" height="50" y="275" clip-path="url(#clipPath2)"/>
      <rect stroke-linecap="square" x="657.5" y="335" clip-path="url(#clipPath2)" width="5" height="50" stroke="none" stroke-miterlimit="10"/>
      <rect fill="none" x="657.5" width="5" height="50" y="335" clip-path="url(#clipPath2)"/>
      <rect stroke-linecap="square" x="545" y="507.5" clip-path="url(#clipPath2)" width="50" height="5" stroke="none" stroke-miterlimit="10"/>
      <rect fill="none" x="545" width="50" height="5" y="507.5" clip-path="url(#clipPath2)"/>
      <rect stroke-linecap="square" x="597.5" y="395" clip-path="url(#clipPath2)" width="5" height="50" stroke="none" stroke-miterlimit="10"/>
      <rect fill="none" x="597.5" width="5" height="50" y="395" clip-path="url(#clipPath2)"/>
      <rect stroke-linecap="square" x="597.5" y="455" clip-path="url(#clipPath2)" width="5" height="50" stroke="none" stroke-miterlimit="10"/>
      <rect fill="none" x="597.5" width="5" height="50" y="455" clip-path="url(#clipPath2)"/>
      <rect stroke-linecap="square" x="575" y="387.5" clip-path="url(#clipPath2)" width="80" height="5" stroke="none" stroke-miterlimit="10"/>
      <rect fill="none" x="575" width="80" height="5" y="387.5" clip-path="url(#clipPath2)"/>
    </g>
  </g>
</svg>
